<svg height="16" viewBox="0 0 16 16" width="16" xmlns="http://www.w3.org/2000/svg"><path style="font-size:12px;font-family:&quot;Comic Sans MS&quot;;-inkscape-font-specification:&quot;Comic Sans MS, Normal&quot;;fill:#0f0;fill-opacity:1;fill-rule:nonzero;stroke-width:8.19897;paint-order:stroke fill markers" d="M12.707 3.814a.93.93 0 0 1-.67-.274.9.9 0 0 1-.282-.662q0-.387.283-.661a.93.93 0 0 1 .669-.274q.388 0 .661.274a.9.9 0 0 1 .283.661.9.9 0 0 1-.283.662.9.9 0 0 1-.661.274m.918 8.418q0 .342-.24.56-.24.217-.63.217a.92.92 0 0 1-.63-.217.72.72 0 0 1-.24-.56c0-2.482-.022-4.319-.027-6.764a.73.73 0 0 1 .24-.567.92.92 0 0 1 .63-.218q.383 0 .621.218a.72.72 0 0 1 .249.567c0 6.6.027-3.677.027 6.764m-2.665-.64c0 .704-.466 1.274-1.04 1.274s-1.04-.57-1.04-1.273.466-1.273 1.04-1.273 1.04.57 1.04 1.273M10.19 2c1.197-.046 1.393 1.88 0 2-4.64.4-6.35 3.522-6.35 7.94C3.84 13.273 2 13.333 2 12c0-5.523 2.73-9.792 8.19-10m.06 3.86c.916-.091 1.318 1.327-.08 1.78-1.231.4-2.413 2.07-2.51 4.26-.058 1.332-1.81 1.353-1.8.02.021-2.794 1.936-5.816 4.39-6.06"/></svg>